<?xml version="1.0" encoding="UTF-8"?>
<svg width="33px" height="24px" viewBox="0 0 33 24" version="1.1" xmlns="http://www.w3.org/2000/svg" xmlns:xlink="http://www.w3.org/1999/xlink">
    <!-- Generator: Sketch 53.2 (72643) - https://sketchapp.com -->
    <title>menu-options</title>
    <desc>Created with Sketch.</desc>
    <g id="Page-1" stroke="none" stroke-width="1" fill="none" fill-rule="evenodd">
        <g id="20_Apartment" transform="translate(-50.000000, -38.000000)" fill="#000000" fill-rule="nonzero">
            <g id="header">
                <g id="menu-options" transform="translate(50.000000, 38.000000)">
                    <path d="M1.40689655,2.88273103 L31.4207172,2.88273103 C32.1945103,2.88273103 32.8276138,2.24962759 32.8276138,1.47583448 C32.8276138,0.702041379 32.1945103,0.068937931 31.4207172,0.068937931 L1.40689655,0.068937931 C0.633103448,0.068937931 0,0.702041379 0,1.47583448 C0,2.24962759 0.633103448,2.88273103 1.40689655,2.88273103 Z" id="Shape"></path>
                    <path d="M1.40689655,13.4344552 L31.4207172,13.4344552 C32.1945103,13.4344552 32.8276138,12.8013517 32.8276138,12.0275586 C32.8276138,11.2537655 32.1945103,10.6206621 31.4207172,10.6206621 L1.40689655,10.6206621 C0.633103448,10.6206621 0,11.2537655 0,12.0275586 C0,12.8013517 0.633103448,13.4344552 1.40689655,13.4344552 Z" id="Shape"></path>
                    <path d="M1.40689655,23.9861793 L31.4207172,23.9861793 C32.1945103,23.9861793 32.8276138,23.3530759 32.8276138,22.5792828 C32.8276138,21.8054897 32.1945103,21.1723862 31.4207172,21.1723862 L1.40689655,21.1723862 C0.633103448,21.1723862 0,21.8054897 0,22.5792828 C0,23.3530759 0.633103448,23.9861793 1.40689655,23.9861793 Z" id="Shape"></path>
                </g>
            </g>
        </g>
    </g>
</svg>