<svg width="14" height="9" viewBox="0 0 14 9" fill="none" xmlns="http://www.w3.org/2000/svg">
<path d="M0.602679 1.71428C0.602679 1.82143 0.656251 1.94196 0.736607 2.02232L6.97768 8.26339C7.05804 8.34375 7.17857 8.39732 7.28571 8.39732C7.39286 8.39732 7.51339 8.34375 7.59375 8.26339L13.8348 2.02232C13.9152 1.94196 13.9688 1.82143 13.9688 1.71429C13.9688 1.60714 13.9152 1.48661 13.8348 1.40625L13.1652 0.736607C13.0848 0.65625 12.9643 0.602679 12.8571 0.602679C12.75 0.602679 12.6295 0.65625 12.5491 0.736607L7.28571 6L2.02232 0.736606C1.94197 0.656249 1.82143 0.602678 1.71429 0.602678C1.59375 0.602678 1.48661 0.656249 1.40625 0.736606L0.736607 1.40625C0.656251 1.48661 0.602679 1.60714 0.602679 1.71428Z" fill="#123A32"/>
</svg>
