<svg width="40" height="40" viewBox="0 0 40 40" fill="none" xmlns="http://www.w3.org/2000/svg">
<rect x="0.5" y="0.5" width="39" height="39" rx="7.5" stroke="#EEEEEE"/>
<path d="M23.3973 24.2857C23.3973 24.4062 23.3437 24.5134 23.2634 24.5937L22.5937 25.2634C22.5134 25.3437 22.3929 25.3973 22.2857 25.3973C22.1786 25.3973 22.058 25.3437 21.9777 25.2634L15.7366 19.0223C15.6562 18.942 15.6027 18.8214 15.6027 18.7143C15.6027 18.6071 15.6562 18.4866 15.7366 18.4062L21.9777 12.1652C22.058 12.0848 22.1786 12.0312 22.2857 12.0312C22.3929 12.0312 22.5134 12.0848 22.5937 12.1652L23.2634 12.8348C23.3437 12.9152 23.3973 13.0357 23.3973 13.1429C23.3973 13.25 23.3437 13.3705 23.2634 13.4509L18 18.7143L23.2634 23.9777C23.3437 24.058 23.3973 24.1786 23.3973 24.2857Z" fill="#123A32"/>
</svg>
