<svg width="40" height="40" viewBox="0 0 40 40" fill="none" xmlns="http://www.w3.org/2000/svg">
<rect x="0.5" y="0.5" width="39" height="39" rx="7.5" stroke="#EEEEEE"/>
<path d="M15.6027 24.2857C15.6027 24.4062 15.6563 24.5134 15.7366 24.5937L16.4063 25.2634C16.4866 25.3437 16.6071 25.3973 16.7143 25.3973C16.8214 25.3973 16.942 25.3437 17.0223 25.2634L23.2634 19.0223C23.3438 18.942 23.3973 18.8214 23.3973 18.7143C23.3973 18.6071 23.3438 18.4866 23.2634 18.4062L17.0223 12.1652C16.942 12.0848 16.8214 12.0312 16.7143 12.0312C16.6071 12.0312 16.4866 12.0848 16.4063 12.1652L15.7366 12.8348C15.6563 12.9152 15.6027 13.0357 15.6027 13.1429C15.6027 13.25 15.6563 13.3705 15.7366 13.4509L21 18.7143L15.7366 23.9777C15.6563 24.058 15.6027 24.1786 15.6027 24.2857Z" fill="#123A32"/>
</svg>
