<svg xmlns="http://www.w3.org/2000/svg" width="24" height="17" fill="none" viewBox="0 0 24 17">
    <path fill="#B15DE4" d="M9.84 0C4.262.16-.136 4.8.003 10.38v1.296c0 2.086 1.256 3.966 3.183 4.764 1.927.799 4.145.358 5.62-1.117 1.474-1.475 1.915-3.693 1.117-5.62-.798-1.926-2.679-3.183-4.765-3.182-.392 0-.783.05-1.163.146-.102.025-.209-.012-.272-.096-.063-.084-.07-.197-.017-.288C4.944 4.047 7.284 2.645 9.84 2.608c.72 0 1.304-.584 1.304-1.304C11.144.584 10.56 0 9.84 0zM22.696 2.608c.72 0 1.304-.584 1.304-1.304C24 .584 23.416 0 22.696 0c-5.578.16-9.976 4.8-9.837 10.38v1.296c0 2.086 1.256 3.966 3.182 4.764 1.927.799 4.145.358 5.62-1.117 1.475-1.474 1.916-3.692 1.118-5.619-.798-1.927-2.678-3.183-4.764-3.183-.392 0-.783.05-1.164.146-.101.026-.208-.012-.271-.096-.063-.084-.07-.197-.018-.288 1.238-2.236 3.578-3.638 6.134-3.675z"/>
</svg>
