<svg xmlns="http://www.w3.org/2000/svg" width="68" height="12" viewBox="0 0 68 12">
    <path fill="none" fill-rule="evenodd" stroke="#FA5636" stroke-width="2" d="M16.093 3.205l5.891 3.951a21.457 21.457 0 0 0 23.995 0l5.893-3.952 5.895 3.954a21.603 21.603 0 0 0 6.633 2.969c.361-.252.721-.505 1.075-.765a20.563 20.563 0 0 1-7.151-3.034l-6.452-4.327-6.45 4.325a20.463 20.463 0 0 1-22.881 0L16.093 2 9.652 6.322A20.584 20.584 0 0 1 3 9.241c.348.258.705.505 1.061.754a21.607 21.607 0 0 0 6.149-2.843l5.883-3.947"/>
</svg>
