<?xml version="1.0" encoding="UTF-8"?>
<svg xmlns="http://www.w3.org/2000/svg" width="122" height="27" viewBox="0 0 122 27">
    <path fill="#FFF" fill-rule="nonzero" d="M9.016 7.536c-.683 0-1.243.181-1.68.544-.437.363-.656.885-.656 1.568s.203 1.232.608 1.648c.405.416.933.736 1.584.96.65.224 1.376.437 2.176.64.8.203 1.595.448 2.384.736.79.288 1.51.645 2.16 1.072.65.427 1.179 1.03 1.584 1.808.405.779.608 1.712.608 2.8 0 1.899-.773 3.525-2.32 4.88-1.547 1.355-3.584 2.032-6.112 2.032S4.787 25.616 3.24 24.4C1.693 23.184.92 21.456.92 19.216h5.824c.15 1.792 1.067 2.688 2.752 2.688.79 0 1.408-.208 1.856-.624.448-.416.672-.944.672-1.584 0-.64-.203-1.163-.608-1.568-.405-.405-.933-.725-1.584-.96a23.317 23.317 0 0 0-2.176-.656c-.8-.203-1.595-.453-2.384-.752a11.65 11.65 0 0 1-2.16-1.072c-.65-.416-1.179-1.013-1.584-1.792-.405-.779-.608-1.701-.608-2.768 0-2.09.779-3.765 2.336-5.024s3.547-1.888 5.968-1.888 4.379.55 5.872 1.648c1.493 1.099 2.272 2.832 2.336 5.2H11.48c-.085-.81-.347-1.435-.784-1.872-.437-.437-.997-.656-1.68-.656zm18.08-1.408c-.619.619-1.376.928-2.272.928-.896 0-1.653-.31-2.272-.928-.619-.619-.928-1.381-.928-2.288 0-.907.31-1.67.928-2.288.619-.619 1.376-.928 2.272-.928.896 0 1.653.31 2.272.928.619.619.928 1.381.928 2.288 0 .907-.31 1.67-.928 2.288zM22.104 26V8.144h5.472V26h-5.472zM37.848 8.144v2.624c1.13-1.877 2.933-2.816 5.408-2.816 2.048 0 3.707.683 4.976 2.048 1.27 1.365 1.904 3.221 1.904 5.568V26h-5.44v-9.696c0-1.152-.304-2.043-.912-2.672-.608-.63-1.445-.944-2.512-.944s-1.904.315-2.512.944c-.608.63-.912 1.52-.912 2.672V26h-5.472V8.144h5.472zM62.36 21.36h1.952V26h-2.784c-2.005 0-3.557-.443-4.656-1.328-1.099-.885-1.648-2.405-1.648-4.56v-7.424H53.56V8.144h1.664V3.792h5.472v4.352h3.584v4.544h-3.584v7.424c0 .832.555 1.248 1.664 1.248zm16.416-.96c.725-.768 1.088-1.877 1.088-3.328 0-1.45-.373-2.555-1.12-3.312-.747-.757-1.632-1.136-2.656-1.136-1.024 0-1.904.379-2.64 1.136-.736.757-1.104 1.861-1.104 3.312 0 1.45.379 2.56 1.136 3.328.757.768 1.648 1.152 2.672 1.152 1.024 0 1.899-.384 2.624-1.152zm-9.312 3.296c-1.792-1.685-2.688-3.904-2.688-6.656s.896-4.955 2.688-6.608c1.792-1.653 4.01-2.48 6.656-2.48 2.645 0 4.859.827 6.64 2.48 1.781 1.653 2.672 3.856 2.672 6.608s-.885 4.97-2.656 6.656c-1.77 1.685-3.979 2.528-6.624 2.528-2.645 0-4.875-.843-6.688-2.528zM101.08 8.144h5.472V26h-5.472v-2.624c-1.13 1.877-2.933 2.816-5.408 2.816-2.048 0-3.707-.683-4.976-2.048-1.27-1.365-1.904-3.221-1.904-5.568V8.144h5.44v9.696c0 1.152.304 2.043.912 2.672.608.63 1.445.944 2.512.944s1.904-.315 2.512-.944c.608-.63.912-1.52.912-2.672V8.144zm15.744 0v3.328c1.28-2.347 2.987-3.52 5.12-3.52v5.568H120.6c-1.259 0-2.203.299-2.832.896-.63.597-.944 1.643-.944 3.136V26h-5.472V8.144h5.472z"/>
</svg>
