<?xml version="1.0" encoding="UTF-8"?>
<svg xmlns="http://www.w3.org/2000/svg" width="118" height="20" viewBox="0 0 118 20">
    <path fill="#FFF" fill-rule="nonzero" d="M5.6 7.888h6.792V.904h4.704V19h-4.704v-7.464H5.6V19H.896V.904H5.6v6.984zM25.592.904V19h-4.704V.904h4.704zm8.496 7.464L39.824.904h5.808l-7.176 8.568L46.304 19h-6.096l-6.12-7.848V19h-4.704V.904h4.704v7.464zm21.168-3.48V19h-4.704V4.888h-3.864V.904H59.12v3.984h-3.864zm10.056 5.064c0 .72.136 1.384.408 1.992a4.99 4.99 0 0 0 2.724 2.628 5.188 5.188 0 0 0 1.956.372 5.188 5.188 0 0 0 3.588-1.416 4.943 4.943 0 0 0 1.116-1.584 4.822 4.822 0 0 0 .408-1.992c0-.72-.136-1.384-.408-1.992a4.943 4.943 0 0 0-1.116-1.584A5.188 5.188 0 0 0 70.4 4.96c-.688 0-1.34.124-1.956.372A4.99 4.99 0 0 0 65.72 7.96a4.822 4.822 0 0 0-.408 1.992zm-4.92 0c0-1.344.248-2.596.744-3.756A9.373 9.373 0 0 1 63.2 3.16c.88-.864 1.932-1.54 3.156-2.028C67.58.644 68.928.4 70.4.4c1.456 0 2.8.244 4.032.732 1.232.488 2.292 1.164 3.18 2.028a9.281 9.281 0 0 1 2.076 3.036c.496 1.16.744 2.412.744 3.756 0 1.344-.248 2.596-.744 3.756a9.281 9.281 0 0 1-2.076 3.036c-.888.864-1.948 1.54-3.18 2.028-1.232.488-2.576.732-4.032.732-1.472 0-2.82-.244-4.044-.732-1.224-.488-2.276-1.164-3.156-2.028a9.373 9.373 0 0 1-2.064-3.036c-.496-1.16-.744-2.412-.744-3.756zM88.112.904v9.84c0 .528.02 1.068.06 1.62.04.552.16 1.052.36 1.5.2.448.516.812.948 1.092.432.28 1.04.42 1.824.42s1.388-.14 1.812-.42c.424-.28.74-.644.948-1.092.208-.448.332-.948.372-1.5.04-.552.06-1.092.06-1.62V.904h4.68v10.488c0 2.816-.644 4.872-1.932 6.168-1.288 1.296-3.268 1.944-5.94 1.944-2.672 0-4.656-.648-5.952-1.944-1.296-1.296-1.944-3.352-1.944-6.168V.904h4.704zm19.56 8.088h.888c.928 0 1.64-.192 2.136-.576.496-.384.744-.936.744-1.656 0-.72-.248-1.272-.744-1.656-.496-.384-1.208-.576-2.136-.576h-.888v4.464zM118.016 19h-5.856l-4.488-6.96V19h-4.704V.904h7.32c1.008 0 1.888.148 2.64.444.752.296 1.372.7 1.86 1.212a5.11 5.11 0 0 1 1.104 1.776 6.19 6.19 0 0 1 .372 2.16c0 1.376-.332 2.492-.996 3.348-.664.856-1.644 1.436-2.94 1.74L118.016 19z"/>
</svg>
