<svg xmlns="http://www.w3.org/2000/svg" width="48" height="48" fill="none" viewBox="0 0 48 48">
    <g clip-path="url(#prefix__clip0)">
        <path fill="#fff" d="M17.5 35.224V44.5c0 .648.416 1.222 1.032 1.426.154.05.312.074.468.074.468 0 .92-.22 1.208-.612l5.426-7.384-8.134-2.78zM47.37.277c-.46-.326-1.064-.37-1.564-.108l-45 23.5c-.532.278-.846.846-.802 1.444.046.6.444 1.112 1.01 1.306l12.51 4.276 26.642-22.78L19.55 32.753l20.966 7.166c.156.052.32.08.484.08.272 0 .542-.074.78-.218.38-.232.638-.622.704-1.06l5.5-37c.082-.56-.154-1.116-.614-1.444z"/>
    </g>
    <defs>
        <clipPath id="prefix__clip0">
            <path fill="#fff" d="M0 0H48V48H0z"/>
        </clipPath>
    </defs>
</svg>
