<?xml version="1.0" encoding="UTF-8"?>
<svg xmlns="http://www.w3.org/2000/svg" width="48" height="50" viewBox="0 0 48 50">
    <path fill="#FA5636" fill-rule="nonzero" d="M47.954 42.313l-2.023-4.654h1.04a.823.823 0 0 0 .585-1.4l-2.34-2.373h.489a.822.822 0 0 0 .65-1.327l-1.895-2.446h.236a.821.821 0 0 0 .704-1.249l-3.617-5.974a.824.824 0 0 0-1.374-.049l-.57.805-4.284-9.852-5.782-13.3a.822.822 0 0 0-1.552.13l-1.662 6.65h-2.995a.82.82 0 0 0-.743.47l-3.825 8.073-2.554 5.392H.881a.822.822 0 0 0-.823.822v5.758c0 .454.368.822.823.822h.822v16.45a.823.823 0 0 0-.822.823v3.29c0 .454.368.822.822.822h25.498a.822.822 0 0 0 .822-.822v-3.29a.822.822 0 0 0-.822-.823v-.924c0-.227-.013-.451-.033-.673H47.2a.823.823 0 0 0 .754-1.15zm-4.717-13.845h-.454a.821.821 0 0 0-.65 1.326l1.895 2.446h-.778a.824.824 0 0 0-.585 1.4l2.34 2.374h-8.321l2.554-2.345a.821.821 0 0 0-.556-1.428h-1.028l2.114-2.408a.823.823 0 0 0-.62-1.365h-.711l2.589-3.653 2.211 3.653zM24.085 8.918H27.2a.822.822 0 0 0 .797-.623l1.232-4.924 4.591 10.56-3.644 3.554-3.061-3.062a.847.847 0 0 0-1.163 0l-3.122 3.122-2.066-1.618 3.32-7.009zM1.703 22.854h13.982v4.112H1.703v-4.112zM14.04 28.61v3.29h-2.467a.822.822 0 1 0 0 1.645h2.541c.058.362.149.713.27 1.05l-2.213.626a.822.822 0 1 0 .449 1.583l2.555-.724c.142.194.296.378.46.553l-2.164 2.076a.822.822 0 0 0 1.139 1.187l2.321-2.227a5.82 5.82 0 0 0 2.97.811 5.664 5.664 0 0 1 5.181 3.394 2.86 2.86 0 0 0-.755-.104h-5.473a3.173 3.173 0 0 0-3.168 3.17v.12H9.928a6.587 6.587 0 0 0-6.58-6.58v-9.87H14.04zM3.348 40.126a4.94 4.94 0 0 1 4.935 4.935H3.348v-4.935zm23.03 8.225H2.525v-1.645h23.853v1.645zm-9.047-3.29v-.12c0-.841.683-1.525 1.523-1.525h5.473a1.23 1.23 0 0 1 1.228 1.229v.416h-8.224zm2.569-8.225a4.22 4.22 0 0 1-4.215-4.215v-4.01h.823a.823.823 0 0 0 .823-.823v-5.025a.811.811 0 0 0 .375-.38l2.336-4.932 2.348 1.838a.824.824 0 0 0 1.089-.066l3.054-3.055 3.055 3.055a.823.823 0 0 0 1.156.007l3.778-3.686 4.204 9.67-2.55 3.6a.822.822 0 0 0 .67 1.298h.486L35.22 32.52a.823.823 0 0 0 .619 1.366h.732l-2.555 2.344a.823.823 0 0 0 .556 1.428h5.789v4.16H26.82c-.97-2.892-3.704-4.982-6.92-4.982zm22.105 4.983v-4.16h2.132l1.809 4.16h-3.941z"/>
</svg>
