<?xml version="1.0" encoding="UTF-8"?>
<svg xmlns="http://www.w3.org/2000/svg" width="56" height="50" viewBox="0 0 56 50">
    <path fill="#FA5636" fill-rule="nonzero" d="M54.37 26.602L50.1 28.4a.928.928 0 0 0-.232.143l-5.764 4.888-.101-.246a2.762 2.762 0 0 0-3.426-1.556l-.63.212-.465-.47-2.198-3.663 2.53-11.551 1.307-.655a2.247 2.247 0 0 0-.259-4.124l.54-2.462a.899.899 0 0 0-1.756-.384l-.66 3.014-6.928 3.469-2.607-2.235.04-.23a4.01 4.01 0 0 0-.485-2.658 4.928 4.928 0 0 0 4.295-6.59l3.166-1.58a.901.901 0 1 0-.801-1.617l-3.27 1.635a4.939 4.939 0 0 0-7.705 6.174 3.992 3.992 0 0 0-.775.24l.127-.67a1.446 1.446 0 0 0-1.207-1.7l-4.17-.617a2.28 2.28 0 0 0-2.596 1.871l-1.049 5.954-1.149-.246a1.895 1.895 0 0 0-2.255 1.485l-.867 4.396a1.894 1.894 0 0 0 1.57 2.238l2.186.338h.013l5.066.68-.049.144a3.473 3.473 0 0 0 .843 3.575c.03.029.063.05.09.078l2.114 5.986-4.384 6.663-2.258 2.675a.9.9 0 0 0 .28 1.382l4.344 2.215-1.94 1.168L0 48.106l.223 1.784 18.815-2.36a.877.877 0 0 0 .354-.123l12.01-7.259 6.309-2.324 6.247-2.302.647-.238a.907.907 0 0 0 .27-.158l6.043-5.124 4.143-1.744-.692-1.656zm-14.384 7.121l1.17-.393a.963.963 0 0 1 1.19.54l.12.29-4.422 1.63-.135.05-.729-1.779 1.47-.979.414.421c.24.243.598.328.922.22zm-17.284-8.899a1.693 1.693 0 0 1-1.454-2.224l.186-.562h5.518l5.83 1.666 2.59 4.315-.47 2.144-2.567-4.107a.901.901 0 0 0-.681-.423l-8.952-.809zm3.62-4.584h-4.476l.417-2.533.294-.026a13.561 13.561 0 0 0 4.365-1.153l.042.036-.642 3.676zm-3.756-4.373l.53-3.218c.104.469.356.891.72 1.205l1.582 1.36c-.914.334-1.865.553-2.832.653zm13.652 20.598l-.93.342.373-1.702.557 1.36zm1.333-4.809l-.809.54-.404.269-.073-.117.455-2.077.831 1.385zm-1.617-6.192l-1.794-2.987a.898.898 0 0 0-.524-.402l-5.513-1.579.45-2.567 1.707 1.469c.687.59 1.662.71 2.472.305l5.016-2.512-1.814 8.273zm3.975-12.369a.45.45 0 0 1 .603.2.45.45 0 0 1-.198.602l-8.392 4.202a.458.458 0 0 1-.493-.062l-3.767-3.244-2.673-2.3a.45.45 0 0 1 .26-.787h.034c.107 0 .211.038.293.108l6.216 5.348 8.117-4.067zM31.797 4.96a3.137 3.137 0 0 1-5.639 1.904l5.504-2.75c.084.275.13.56.135.846zM28.65 1.813c.754.003 1.482.28 2.048.778l-5.175 2.583c0-.072-.021-.14-.021-.213a3.151 3.151 0 0 1 3.145-3.148h.003zm-2.772 7.844a2.198 2.198 0 0 1 1.768 1.565l-.9-.773a2.235 2.235 0 0 0-3.116.188 2.226 2.226 0 0 1 2.248-.98zm-13.363 9.319l.868-4.397-.883-.173.997.098 1.211.26-.797 4.528-1.317-.203-.08-.113zM17.84 7.35a.502.502 0 0 1 .56-.404l3.808.564-.693 3.67v.02l-1.476 8.933-4.348-.585L17.84 7.35zm6.595 24.14l-1.716-4.86 3.21.292.733 4.787-5.236 7.65-1.24-.766 4.151-6.31a.9.9 0 0 0 .098-.792zm-2.06 12.02l-4.328-2.206 1.064-1.259 2.1 1.295a.91.91 0 0 0 .472.133h.104c.817.002 1.531.55 1.746 1.338l-.277.167-.88.531zm8.323-5.012a.894.894 0 0 0-.154.075L25.1 41.864a3.612 3.612 0 0 0-1.91-1.896l5.16-7.536a.894.894 0 0 0 .146-.644l-.72-4.698 3.273.297 3.306 5.29-1.066 4.867-2.59.954z"/>
</svg>
