<?xml version="1.0" encoding="UTF-8"?>
<svg xmlns="http://www.w3.org/2000/svg" width="84" height="100" viewBox="0 0 84 100">
    <g fill="#FFF" fill-rule="nonzero">
        <path d="M41.688 100c22.615-.102 41.02-18.223 41.471-40.833.453-22.61-17.213-41.453-39.805-42.459V1.667a1.667 1.667 0 0 0-3.333 0v15.041C17.43 17.714-.236 36.558.216 59.168.67 81.777 19.074 99.897 41.688 100zm0-63.333c.92 0 1.666-.747 1.666-1.667v-1.204a3.333 3.333 0 1 1-3.333 0V35c0 .92.746 1.667 1.667 1.667zM40.02 20.042v10.195a6.666 6.666 0 1 0 3.333 0V20.042c20.827.906 37.111 18.289 36.658 39.13-.453 20.842-17.478 37.5-38.324 37.5-20.846 0-37.87-16.658-38.324-37.5-.453-20.841 15.831-38.224 36.657-39.13z"/>
        <path d="M30.688 83c.736.552 1.781.403 2.334-.333l20-26.667a1.667 1.667 0 0 0-2.667-2l-20 26.667A1.666 1.666 0 0 0 30.688 83zM33.354 66.667a6.666 6.666 0 1 0 0-13.333 6.666 6.666 0 0 0 0 13.333zm0-10a3.333 3.333 0 1 1 .001 6.666 3.333 3.333 0 0 1 0-6.666zM43.354 76.667a6.667 6.667 0 1 0 13.334-.001 6.667 6.667 0 0 0-13.334 0zm10 0a3.333 3.333 0 1 1-6.665 0 3.333 3.333 0 0 1 6.665 0z"/>
    </g>
</svg>
