<?xml version="1.0" encoding="UTF-8"?>
<svg xmlns="http://www.w3.org/2000/svg" width="55" height="50" viewBox="0 0 55 50">
    <path fill="#FA5636" fill-rule="nonzero" d="M54.447 47.31L42.949 28.623a1.703 1.703 0 0 0-1.46-.816c-.6 0-1.146.305-1.46.816l-1.493 2.426a.803.803 0 0 0 1.368.841l1.492-2.426c.008-.013.032-.052.093-.052s.085.04.093.052L53.08 48.151a.1.1 0 0 1 .002.11c-.03.056-.078.056-.095.056h-6.368L28.81 19.373a1.71 1.71 0 0 0-.636-.606V13.32a7.418 7.418 0 0 0 1.955.259c1.83 0 3.545-.636 5.222-1.259 2.323-.862 4.518-1.677 6.892-.725a.991.991 0 0 0 1.362-.922V1.607c0-.4-.237-.758-.604-.914-3.013-1.285-5.655-.305-8.209.643-2.393.888-4.653 1.727-7.114.627a.803.803 0 0 0-1.13.733v.03a.823.823 0 0 0-.022.185v15.856c-.256.14-.476.346-.636.606l-8.455 13.742-2.763-4.492a1.703 1.703 0 0 0-1.46-.816c-.6 0-1.146.305-1.46.816L.254 47.31a1.716 1.716 0 0 0 1.46 2.613h51.273a1.716 1.716 0 0 0 1.46-2.613zM28.153 3.836c2.598.712 4.931-.154 7.198-.995 2.242-.832 4.366-1.62 6.649-.817v7.798c-2.606-.715-4.942.152-7.208.993-2.238.831-4.36 1.619-6.639.817V3.836zM9.966 48.318l2.753-4.475A.803.803 0 0 0 11.352 43l-3.27 5.317H1.714c-.018 0-.064 0-.095-.056a.1.1 0 0 1 .002-.11l11.498-18.688c.008-.013.032-.052.093-.052.06 0 .085.04.093.052l3.188 5.182-3.183 5.175a.803.803 0 0 0 1.366.84l12.581-20.447c.008-.013.032-.052.093-.052s.085.04.093.052l17.292 28.104H9.966z"/>
</svg>
