<?xml version="1.0" encoding="UTF-8"?>
<svg xmlns="http://www.w3.org/2000/svg" width="32" height="32" viewBox="0 0 32 32">
    <defs>
        <linearGradient id="a" x1="9.154%" x2="90.846%" y1="90.847%" y2="9.153%">
            <stop offset="0%" stop-color="#FFC107"/>
            <stop offset="50.7%" stop-color="#F44336"/>
            <stop offset="99%" stop-color="#9C27B0"/>
        </linearGradient>
        <linearGradient id="b" x1="14.646%" x2="85.354%" y1="85.354%" y2="14.646%">
            <stop offset="0%" stop-color="#FFC107"/>
            <stop offset="50.7%" stop-color="#F44336"/>
            <stop offset="99%" stop-color="#9C27B0"/>
        </linearGradient>
        <linearGradient id="c" x1="14.648%" x2="85.352%" y1="85.361%" y2="14.648%">
            <stop offset="0%" stop-color="#FFC107"/>
            <stop offset="50.7%" stop-color="#F44336"/>
            <stop offset="99%" stop-color="#9C27B0"/>
        </linearGradient>
    </defs>
    <g fill="none" fill-rule="nonzero">
        <path fill="url(#a)" d="M22 0H10C4.478 0 0 4.478 0 10v12c0 5.522 4.478 10 10 10h12c5.522 0 10-4.478 10-10V10c0-5.522-4.478-10-10-10zm7 22c0 3.86-3.14 7-7 7H10c-3.86 0-7-3.14-7-7V10c0-3.86 3.14-7 7-7h12c3.86 0 7 3.14 7 7v12z"/>
        <path fill="url(#b)" d="M16 7.958a8.043 8.043 0 1 0 0 16.085 8.043 8.043 0 0 0 0-16.085zm0 13.068A5.033 5.033 0 0 1 10.974 16 5.032 5.032 0 0 1 16 10.974 5.032 5.032 0 0 1 21.026 16 5.033 5.033 0 0 1 16 21.026z"/>
        <circle cx="24.635" cy="7.365" r="1.101" fill="url(#c)"/>
    </g>
</svg>
