<svg xmlns="http://www.w3.org/2000/svg" width="34" height="32" viewBox="0 0 34 32">
    <path fill="#FFCB16" d="M32.726 18.252c-.445.569-1.268.669-1.837.223-.569-.446-.67-1.268-.223-1.837.298-.38.298-.912 0-1.293l-.008-.01-1.49-1.938c-.597-.67-.585-1.61-.575-2.372l.002-.24v-2.47c0-.564-.609-.823-.971-.928l-2.47-.71c-.821-.237-1.54-.754-2.022-1.456l-1.447-2.104c-.277-.403-.795-.569-1.26-.403l-2.427.863c-.802.285-1.685.285-2.487 0l-2.428-.863c-.465-.166-.982 0-1.26.402l-1.447 2.105c-.483.702-1.2 1.219-2.022 1.455-.03.01-.062.017-.093.023l-2.573.54c-.465.152-.79.583-.775 1.039v2.596c0 .07.002.145.004.221.012.6.03 1.504-.54 2.24l-1.524 1.997-.01.013c-.298.38-.298.912 0 1.293l.007.01 1.525 1.985c.569.73.554 1.579.542 2.26-.002.1-.003.202-.003.306v2.56l-.001.04c-.016.497.87.767.972.796l2.47.712c.82.236 1.539.753 2.021 1.455l1.448 2.104c.277.403.794.568 1.259.403l2.428-.863c.802-.285 1.685-.285 2.487 0l2.427.863c.465.165.983 0 1.26-.403l1.447-2.104c.483-.702 1.201-1.219 2.022-1.455l2.47-.712c.451-.13.987-.91.972-1.413-.023-.723.544-1.327 1.267-1.35.72-.023 1.326.545 1.349 1.268.053 1.712-1.258 3.548-2.864 4.01l-2.47.712c-.24.07-.449.22-.59.423l-1.447 2.105c-.947 1.377-2.713 1.947-4.292 1.386l-2.429-.864c-.236-.084-.496-.084-.732 0l-2.428.864c-.408.144-.827.214-1.242.214-1.194 0-2.348-.578-3.051-1.6l-1.448-2.105c-.14-.204-.35-.354-.59-.423L5.16 27.11c-1.806-.52-2.902-1.81-2.864-3.37v-2.542c0-.12.002-.236.004-.35.004-.224.009-.525-.019-.644L.778 18.246C-.26 16.918-.26 15.066.776 13.738l1.502-1.967c.032-.126.025-.434.022-.622-.002-.095-.004-.187-.004-.275V8.337C2.254 6.673 3.364 5.185 5 4.713c.03-.009.062-.017.093-.023l2.573-.54c.224-.074.42-.22.552-.412l1.448-2.105C10.614.255 12.38-.315 13.96.247l2.428.863c.236.084.496.084.733 0l2.428-.863c1.58-.562 3.345.008 4.292 1.386l1.448 2.104c.14.204.35.355.59.424l2.47.71c1.766.51 2.863 1.829 2.863 3.443v2.472c0 .087 0 .178-.002.272-.002.213-.007.553.02.725l1.5 1.954c1.039 1.33 1.037 3.186-.004 4.515zM18.063 8.54c0-.723-.586-1.309-1.309-1.309s-1.309.586-1.309 1.309v10.209c0 .723.586 1.309 1.31 1.309.722 0 1.308-.586 1.308-1.31V8.54zm-.057 14.41c-.013-.041-.027-.082-.043-.121-.017-.04-.035-.079-.055-.116-.02-.038-.042-.075-.066-.11-.023-.036-.05-.07-.076-.103-.027-.034-.056-.066-.086-.096-.03-.03-.063-.06-.096-.086-.033-.027-.068-.053-.103-.077-.036-.023-.073-.046-.11-.065-.038-.02-.077-.039-.116-.055-.04-.017-.08-.031-.12-.043-.042-.013-.084-.023-.125-.032-.042-.008-.085-.015-.127-.019-.086-.008-.172-.008-.258 0-.042.004-.085.01-.127.02-.041.008-.083.018-.124.03-.04.013-.081.027-.12.044-.04.016-.079.034-.116.055-.038.02-.075.042-.11.065-.036.024-.071.05-.104.077-.033.027-.065.056-.095.086-.03.03-.06.062-.086.096-.027.032-.054.067-.077.103-.024.035-.046.072-.066.11-.02.037-.038.077-.055.116-.016.04-.03.08-.043.12-.012.041-.023.083-.031.125-.008.041-.015.085-.02.127-.004.043-.006.086-.006.128 0 .043.002.086.007.13.004.041.01.085.019.126.008.042.019.083.031.124.013.041.027.082.043.12.017.04.035.08.055.117.02.037.042.075.066.11.023.036.05.07.077.103.026.034.056.066.086.096.03.03.062.06.095.086.033.027.068.053.104.077.035.023.072.045.11.065.037.02.076.039.116.055.039.016.08.031.12.043.041.013.083.023.124.032.042.008.085.015.127.019.043.004.087.006.13.006.042 0 .085-.002.128-.006.042-.004.085-.01.127-.02.041-.008.083-.018.124-.03.04-.013.082-.028.12-.044.04-.016.08-.034.117-.055.037-.02.074-.042.11-.065.036-.024.07-.05.103-.077.033-.027.065-.056.096-.086.03-.03.06-.062.086-.096.027-.033.053-.067.076-.103.024-.035.046-.073.066-.11.02-.037.038-.077.055-.116.016-.04.03-.08.043-.12.013-.042.023-.084.031-.125.01-.042.016-.085.02-.127.004-.043.006-.086.006-.129 0-.042-.002-.085-.007-.128-.003-.042-.01-.086-.019-.127-.008-.042-.019-.084-.031-.125z"/>
</svg>
