<svg xmlns="http://www.w3.org/2000/svg" width="32" height="32" viewBox="0 0 32 32">
    <path fill="#41D721" d="M21.375 12.024v-.747c0-1.221-.99-2.214-2.207-2.214h-6.461c-1.217 0-2.207.993-2.207 2.214v.747c0 1.596 1.552 2.91 2.686 3.87l.121.103-.129.109c-1.133.96-2.685 2.274-2.685 3.87v.747c0 .07.005.137.016.203.102 1.126 1.05 2.012 2.198 2.012h6.461c1.217 0 2.207-.994 2.207-2.215v-.747c0-1.596-1.552-2.91-2.686-3.87L18.564 16l.125-.106c1.134-.96 2.686-2.274 2.686-3.87zm-2.5 7.952v.462h-5.882v-.46c0-.001.02-.23.488-.75.382-.426.876-.844 1.313-1.214l.324-.276c.03-.022.06-.045.088-.07.392-.344.648-.808.732-1.31.083.502.34.966.731 1.31.125.11.26.224.405.346.436.37.931.788 1.312 1.213.468.522.489.75.489.75zm-.489-7.203c-.38.425-.876.843-1.312 1.213-.144.122-.28.237-.405.347-.392.343-.648.807-.732 1.308-.083-.502-.34-.965-.73-1.309-.126-.11-.262-.224-.406-.346-.436-.37-.931-.788-1.312-1.213-.468-.522-.489-.75-.489-.75v-.46h5.875v.458c0 .002-.02.23-.489.752zM0 8.375v-3c0-.69.56-1.25 1.25-1.25s1.25.56 1.25 1.25v2.033c1.23-1.93 2.863-3.582 4.803-4.84C9.893.888 12.9 0 16 0c4.274 0 8.292 1.664 11.314 4.686C30.336 7.708 32 11.726 32 16c0 .69-.56 1.25-1.25 1.25S29.5 16.69 29.5 16c0-7.444-6.056-13.5-13.5-13.5-4.73 0-9.117 2.51-11.545 6.5h1.67c.69 0 1.25.56 1.25 1.25s-.56 1.25-1.25 1.25h-3C1.402 11.5 0 10.098 0 8.375zm32 15.25v2.938c0 .69-.56 1.25-1.25 1.25s-1.25-.56-1.25-1.25v-2.07c-1.237 1.974-2.893 3.66-4.865 4.939-2.59 1.68-5.597 2.568-8.698 2.568-4.27 0-8.279-1.665-11.285-4.689C1.652 24.293 0 20.276 0 16c0-.69.56-1.25 1.25-1.25S2.5 15.31 2.5 16c0 7.444 6.028 13.5 13.438 13.5 4.729 0 9.116-2.51 11.545-6.5h-1.67c-.69 0-1.25-.56-1.25-1.25s.56-1.25 1.25-1.25h3.062c1.723 0 3.125 1.402 3.125 3.125z"/>
</svg>
