<svg xmlns="http://www.w3.org/2000/svg" width="80" height="80" viewBox="0 0 80 80">
    <path fill="#41D721" d="M40 80c-10.684 0-20.73-4.16-28.284-11.716C4.16 60.73 0 50.684 0 40c0-10.684 4.16-20.73 11.716-28.284C19.27 4.16 29.316 0 40 0c10.684 0 20.73 4.16 28.284 11.716C75.84 19.27 80 29.316 80 40c0 7.895-2.343 15.574-6.777 22.206-.96 1.434-2.9 1.82-4.335.86-1.435-.959-1.82-2.9-.86-4.334C71.77 53.132 73.75 46.655 73.75 40 73.75 21.39 58.61 6.25 40 6.25S6.25 21.39 6.25 40 21.39 73.75 40 73.75c6.173 0 12.21-1.68 17.459-4.86 1.476-.895 3.398-.423 4.292 1.053.894 1.477.422 3.398-1.054 4.292C54.471 78.007 47.315 80 40 80zm14.844-31.094c0-1.726-1.4-3.125-3.125-3.125-1.726 0-3.125 1.4-3.125 3.125 0 4.739-3.855 8.594-8.594 8.594-4.739 0-8.594-3.855-8.594-8.594 0-1.726-1.399-3.125-3.125-3.125s-3.125 1.4-3.125 3.125c0 8.185 6.66 14.844 14.844 14.844 8.185 0 14.844-6.659 14.844-14.844zm6.875-17.5c0-4.308-3.505-7.812-7.813-7.812s-7.812 3.504-7.812 7.812c0 1.726 1.399 3.125 3.125 3.125s3.125-1.399 3.125-3.125c0-.861.7-1.562 1.562-1.562.862 0 1.563.7 1.563 1.562 0 1.726 1.399 3.125 3.125 3.125s3.125-1.399 3.125-3.125zm-27.657 0c0-4.308-3.504-7.812-7.812-7.812s-7.813 3.504-7.813 7.812c0 1.726 1.4 3.125 3.125 3.125 1.726 0 3.125-1.399 3.125-3.125 0-.861.701-1.562 1.563-1.562s1.563.7 1.563 1.562c0 1.726 1.399 3.125 3.125 3.125 1.725 0 3.125-1.399 3.125-3.125z"/>
</svg>
